<svg width="128" height="108" viewBox="0 0 128 108" fill="none" xmlns="http://www.w3.org/2000/svg">
<path d="M0.194952 88.6329C0.064984 88.6189 0 88.5396 0 88.3904V86.6183C0 86.483 0.0557006 86.4131 0.176385 86.4131C0.264578 86.4131 0.348129 86.4224 0.427038 86.4317C0.505947 86.4457 0.598782 86.4504 0.700899 86.4504C0.993327 86.4504 1.21149 86.2965 1.35538 85.9934C1.49927 85.6902 1.59675 85.1633 1.63853 84.4171L2.12126 75.524C2.12126 75.3608 2.20017 75.2815 2.36263 75.2815H9.96113C10.0354 75.2815 10.0957 75.3048 10.1468 75.3514C10.1979 75.3981 10.2211 75.4634 10.2211 75.5427V88.3391C10.2211 88.4183 10.1979 88.4836 10.1468 88.5303C10.0957 88.5769 10.0354 88.6002 9.96113 88.6002H7.62634C7.55207 88.6002 7.49173 88.5769 7.44067 88.5303C7.38961 88.4836 7.36176 88.4277 7.36176 88.3577V77.5946H4.78097L4.38642 84.6363C4.32608 85.6529 4.19147 86.4597 3.97331 87.0566C3.75515 87.6535 3.43487 88.0872 3.01247 88.3577C2.59008 88.6282 2.03771 88.7634 1.35074 88.7634C0.94691 88.7728 0.561648 88.7261 0.194952 88.6329Z" fill="white"/>
<path d="M13.7952 88.5396C13.7534 88.4929 13.7302 88.437 13.7302 88.367V75.5286C13.7302 75.4587 13.7534 75.4027 13.7952 75.3561C13.837 75.3094 13.8973 75.2861 13.9716 75.2861H21.1523C21.3101 75.2861 21.3937 75.3654 21.3937 75.5286V77.3987C21.3937 77.5619 21.3148 77.6412 21.1523 77.6412H16.571V80.7563H20.7392C20.897 80.7563 20.9806 80.8356 20.9806 80.9988V82.7476C20.9806 82.9108 20.9017 82.9901 20.7392 82.9901H16.571V86.2452H21.157C21.3148 86.2452 21.3983 86.3244 21.3983 86.4877V88.3577C21.3983 88.5209 21.3194 88.6002 21.157 88.6002H13.9716C13.8973 88.6095 13.8416 88.5862 13.7952 88.5396Z" fill="white"/>
<path d="M24.2761 83.9741V79.9449C24.2761 78.3453 24.6939 77.1422 25.5294 76.3354C26.3649 75.5286 27.5857 75.1229 29.1871 75.1229C30.6724 75.1229 31.8468 75.4867 32.7148 76.2095C33.5828 76.937 34.0144 77.921 34.0144 79.1708C34.0144 79.306 34.0005 79.5392 33.9727 79.861C33.9448 80.0382 33.8613 80.1268 33.7313 80.1268H31.3501C31.1737 80.1268 31.1041 80.0382 31.1319 79.861C31.2201 78.2754 30.5703 77.4826 29.1871 77.4826C28.4908 77.4826 27.9709 77.6831 27.6367 78.0842C27.3025 78.4852 27.1354 79.1241 27.1354 80.0055V83.8528C27.1354 84.7622 27.3025 85.4151 27.6367 85.8161C27.9709 86.2172 28.4954 86.4177 29.2103 86.4177C29.8648 86.4177 30.3521 86.2405 30.6724 85.8768C30.9927 85.5177 31.1551 85.014 31.1551 84.3611L31.1319 84.0161C31.1319 83.8388 31.2108 83.7502 31.3733 83.7502H33.7313C33.8613 83.7502 33.9402 83.8435 33.9727 84.0347C33.9866 84.1699 33.9959 84.3658 33.9959 84.627C33.9959 85.9141 33.5781 86.9307 32.7426 87.6675C31.9071 88.409 30.7235 88.7774 29.1963 88.7774C25.9147 88.7727 24.2761 87.1732 24.2761 83.9741Z" fill="white"/>
<path d="M37.3565 88.5396C37.3147 88.4929 37.2915 88.4276 37.2915 88.3484V75.5286C37.2915 75.4587 37.3147 75.4027 37.3704 75.3561C37.4215 75.3094 37.4818 75.2861 37.5561 75.2861H46.6399C46.7142 75.2861 46.7745 75.3094 46.8256 75.3561C46.8767 75.4027 46.9045 75.4633 46.9045 75.5286V88.3484C46.9045 88.4276 46.8813 88.4929 46.8395 88.5396C46.7977 88.5862 46.7374 88.6095 46.6631 88.6095H44.3051C44.1427 88.6095 44.0638 88.5302 44.0638 88.367V77.6458H40.1322V88.3484C40.1322 88.5256 40.058 88.6142 39.9141 88.6142H37.5329C37.454 88.6095 37.3983 88.5862 37.3565 88.5396Z" fill="white"/>
<path d="M50.474 88.5396C50.4323 88.4929 50.4091 88.437 50.4091 88.367V75.5286C50.4091 75.4587 50.4323 75.4027 50.474 75.3561C50.5158 75.3094 50.5762 75.2861 50.6504 75.2861H54.1224C55.7517 75.2861 56.9539 75.6499 57.7244 76.3727C58.4949 77.1002 58.8802 78.2054 58.8802 79.6977C58.8802 81.1201 58.481 82.2066 57.678 82.9528C56.875 83.6989 55.7145 84.072 54.1828 84.072H53.2451V88.367C53.2451 88.5302 53.1662 88.6095 53.0038 88.6095H50.6458C50.5762 88.6095 50.5205 88.5862 50.474 88.5396ZM54.1224 81.7356C54.7769 81.7356 55.2597 81.5724 55.5753 81.246C55.8863 80.9195 56.0441 80.4112 56.0441 79.721C56.0441 78.9889 55.8909 78.4573 55.5846 78.1262C55.2782 77.795 54.8001 77.6272 54.1456 77.6272H53.2498V81.7356H54.1224Z" fill="white"/>
<path d="M62.9091 87.5836C62.0736 86.7908 61.6559 85.6203 61.6559 84.072V79.8377C61.6559 78.2894 62.069 77.1189 62.8999 76.3168C63.7307 75.5147 64.9515 75.1183 66.5668 75.1183C68.1821 75.1183 69.4029 75.5147 70.2338 76.3075C71.0646 77.1002 71.4778 78.2801 71.4778 79.8377V84.072C71.4778 85.6203 71.0646 86.7908 70.2338 87.5836C69.4029 88.3764 68.1821 88.7728 66.5668 88.7728C64.9654 88.7728 63.7447 88.3764 62.9091 87.5836ZM68.1264 85.8115C68.4699 85.4104 68.6417 84.7902 68.6417 83.9508V79.9636C68.6417 79.1102 68.4699 78.4806 68.1264 78.0795C67.783 77.6785 67.2631 77.478 66.5668 77.478C65.8706 77.478 65.3507 77.6785 65.0165 78.0795C64.6823 78.4806 64.5152 79.1055 64.5152 79.9636V83.9508C64.5152 84.7902 64.6823 85.4104 65.0165 85.8115C65.3507 86.2125 65.8659 86.4131 66.5668 86.4131C67.2677 86.4131 67.783 86.2125 68.1264 85.8115Z" fill="white"/>
<path d="M85.0548 86.497V91.1557C85.0548 91.2257 85.0269 91.2863 84.9759 91.3376C84.9248 91.3936 84.8645 91.4169 84.7902 91.4169H82.5436C82.4694 91.4169 82.409 91.3889 82.3579 91.3376C82.3069 91.2816 82.279 91.221 82.279 91.1557V88.6142H76.514V91.1557C76.514 91.2257 76.4908 91.2863 76.4351 91.3376C76.3841 91.3936 76.3237 91.4169 76.2495 91.4169H73.9797C73.9193 91.4169 73.8682 91.3889 73.8172 91.3376C73.7661 91.2816 73.7383 91.221 73.7383 91.1557V86.497C73.7383 86.3198 73.8172 86.2312 73.9797 86.2312H74.7641C74.9823 85.8767 75.1122 85.2752 75.1586 84.4218L75.6367 75.5286C75.6367 75.3654 75.7157 75.2861 75.8781 75.2861H83.5648C83.6391 75.2861 83.6948 75.3141 83.7412 75.3654C83.783 75.4214 83.8062 75.482 83.8062 75.5473V86.2312H84.8088C84.9759 86.2312 85.0548 86.3198 85.0548 86.497ZM77.5677 86.2312H80.9747V77.6039H78.3104L77.9622 84.2958C77.9158 85.098 77.7859 85.7415 77.5677 86.2312Z" fill="white"/>
<path d="M97.9821 88.4277C97.9821 88.5489 97.9171 88.6095 97.7871 88.6095H95.1692C95.0392 88.6095 94.951 88.5396 94.9093 88.4043L94.343 85.9234H90.7178L90.1515 88.4043C90.1097 88.5396 90.0122 88.6095 89.8683 88.6095H87.334C87.1576 88.6095 87.0926 88.5163 87.139 88.3251L90.7178 75.4867C90.7596 75.3514 90.8617 75.2815 91.0241 75.2815H94.0784C94.2223 75.2815 94.3198 75.3514 94.3615 75.4867L97.9635 88.3251L97.9821 88.4277ZM93.8556 83.7689L93.1129 80.5138C92.969 79.8889 92.7787 78.9656 92.5466 77.7484H92.5048C92.2728 78.9703 92.0825 79.8936 91.9386 80.5138L91.1959 83.7689H93.8556Z" fill="white"/>
<path d="M99.7691 88.5303C99.7412 88.4743 99.7459 88.3997 99.7923 88.3064L102.698 81.6937L100.122 75.5893C100.094 75.51 100.08 75.4587 100.08 75.4447C100.08 75.3375 100.145 75.2815 100.275 75.2815H102.851C102.995 75.2815 103.093 75.3375 103.134 75.4447L105.167 80.8589H106.151V75.5287C106.151 75.4587 106.175 75.4027 106.23 75.3561C106.281 75.3095 106.342 75.2862 106.416 75.2862H108.644C108.82 75.2862 108.904 75.3654 108.904 75.5287V80.8589H109.907L111.935 75.4447C111.977 75.3375 112.074 75.2815 112.218 75.2815H114.771C114.859 75.2815 114.915 75.3095 114.947 75.3608C114.975 75.4167 114.971 75.4914 114.924 75.5846L112.348 81.689L115.254 88.3018C115.282 88.381 115.296 88.4323 115.296 88.4463C115.296 88.5536 115.231 88.6095 115.101 88.6095H112.348C112.218 88.6095 112.121 88.5489 112.065 88.4277L109.902 83.0741H108.899V88.3624C108.899 88.5256 108.811 88.6049 108.639 88.6049H106.411C106.337 88.6049 106.277 88.5816 106.226 88.5349C106.175 88.4883 106.147 88.4323 106.147 88.3624V83.0741H105.121L102.893 88.4277C102.833 88.5489 102.74 88.6095 102.61 88.6095H99.9455C99.8573 88.6095 99.8016 88.5862 99.7691 88.5303Z" fill="white"/>
<path d="M128 88.4277C128 88.5489 127.935 88.6095 127.805 88.6095H125.187C125.057 88.6095 124.969 88.5396 124.927 88.4043L124.361 85.9234H120.736L120.169 88.4043C120.128 88.5396 120.03 88.6095 119.886 88.6095H117.352C117.176 88.6095 117.111 88.5163 117.157 88.3251L120.736 75.4867C120.777 75.3514 120.88 75.2815 121.042 75.2815H124.096C124.24 75.2815 124.338 75.3514 124.379 75.4867L127.981 88.3251L128 88.4277ZM123.874 83.7689L123.131 80.5138C122.987 79.8889 122.797 78.9656 122.565 77.7484H122.523C122.291 78.9703 122.1 79.8936 121.956 80.5138L121.214 83.7689H123.874Z" fill="white"/>
<path d="M59.9849 107.011V107.897H57.0049V106.666C57.0049 106.372 57.1534 106.018 57.4458 105.612C57.7197 105.239 57.9936 104.866 58.2721 104.488C58.5691 104.008 58.7223 103.546 58.7223 103.099C58.7223 102.987 58.7084 102.894 58.6759 102.819C58.6434 102.744 58.5877 102.707 58.4949 102.707C58.402 102.707 58.3463 102.744 58.3138 102.819C58.286 102.894 58.2674 102.987 58.2674 103.099V104.059H57.0049V102.907C57.0049 102.539 57.1534 102.259 57.4551 102.073C57.7243 101.905 58.0725 101.821 58.4949 101.821C58.9312 101.821 59.2793 101.9 59.5346 102.063C59.8317 102.25 59.9849 102.53 59.9849 102.907V103.159C59.9849 103.64 59.8363 104.143 59.5439 104.675C59.5393 104.694 59.2608 105.109 58.7177 105.929C58.4206 106.382 58.2674 106.741 58.2674 107.011H59.9849Z" fill="white"/>
<path d="M60.8715 106.913V102.907C60.8715 102.539 61.02 102.264 61.3217 102.073C61.5909 101.905 61.9391 101.821 62.3615 101.821C62.7978 101.821 63.1459 101.9 63.4012 102.063C63.6983 102.245 63.8514 102.53 63.8514 102.907V106.913C63.8514 107.282 63.7029 107.557 63.4012 107.748C63.132 107.916 62.7839 108 62.3615 108C61.9251 108 61.577 107.921 61.3217 107.757C61.02 107.576 60.8715 107.291 60.8715 106.913ZM62.5843 106.722V103.099C62.5843 102.987 62.5703 102.894 62.5378 102.819C62.5053 102.744 62.4496 102.707 62.3568 102.707C62.264 102.707 62.2083 102.744 62.1758 102.819C62.1433 102.894 62.1294 102.987 62.1294 103.099V106.722C62.1294 106.834 62.1433 106.927 62.1758 107.002C62.2083 107.077 62.264 107.114 62.3568 107.114C62.4496 107.114 62.5053 107.077 62.5378 107.002C62.5703 106.927 62.5843 106.834 62.5843 106.722Z" fill="white"/>
<path d="M65.6339 107.897V103.323H64.9144V102.604C65.1836 102.604 65.3972 102.553 65.5503 102.446C65.7035 102.339 65.8196 102.171 65.8892 101.938H66.8918V107.897H65.6339Z" fill="white"/>
<path d="M71.5798 104.045H70.3173V103.099C70.3173 102.987 70.3034 102.894 70.2709 102.819C70.2384 102.744 70.1827 102.707 70.0898 102.707C69.997 102.707 69.9413 102.744 69.9088 102.819C69.881 102.894 69.8624 102.987 69.8624 103.099V104.554C70.0666 104.4 70.2941 104.321 70.554 104.321C70.9254 104.321 71.1946 104.428 71.3617 104.638C71.5056 104.815 71.5752 105.081 71.5752 105.43V106.913C71.5752 107.282 71.4267 107.557 71.1249 107.748C70.8557 107.916 70.5076 108 70.0852 108C69.6489 108 69.3008 107.921 69.0455 107.757C68.7484 107.576 68.5952 107.291 68.5952 106.913V102.907C68.5952 102.539 68.7438 102.264 69.0455 102.073C69.3147 101.905 69.6628 101.821 70.0852 101.821C70.5215 101.821 70.8697 101.9 71.1249 102.063C71.422 102.245 71.5752 102.53 71.5752 102.907V104.045H71.5798ZM69.867 105.748V106.722C69.867 106.834 69.881 106.927 69.9135 107.002C69.9413 107.077 70.0017 107.114 70.0945 107.114C70.1873 107.114 70.243 107.077 70.2755 107.002C70.3034 106.927 70.3219 106.834 70.3219 106.722V105.748C70.3219 105.636 70.308 105.542 70.2755 105.468C70.243 105.393 70.1873 105.356 70.0945 105.356C70.0017 105.356 69.946 105.393 69.9135 105.468C69.881 105.547 69.867 105.636 69.867 105.748Z" fill="white"/>
<path d="M33.7964 95.3574H32.1486V97.9036H31.7587V95.0123H33.7964V95.3574Z" fill="white"/>
<path d="M37.6722 95.1756C37.8904 95.2969 38.0621 95.4694 38.1875 95.6933C38.3128 95.9171 38.3731 96.1736 38.3731 96.4581C38.3731 96.7472 38.3128 97.0037 38.1875 97.2275C38.0621 97.4514 37.895 97.6239 37.6769 97.7452C37.4587 97.8664 37.2127 97.9317 36.9435 97.9317C36.7114 97.9317 36.4979 97.8851 36.3122 97.7872C36.1265 97.6892 35.9687 97.5493 35.848 97.3628V98.9717H35.4581V95.0124H35.8295V95.586C35.9455 95.3948 36.0987 95.2503 36.2936 95.1477C36.484 95.0451 36.7021 94.9938 36.9435 94.9938C37.2081 94.9891 37.4494 95.0544 37.6722 95.1756ZM37.4587 97.4467C37.6212 97.3535 37.7511 97.2182 37.844 97.0503C37.9368 96.8778 37.9832 96.6819 37.9832 96.4627C37.9832 96.2436 37.9368 96.0477 37.844 95.8751C37.7511 95.7026 37.6212 95.572 37.4587 95.4788C37.2962 95.3855 37.1106 95.3342 36.911 95.3342C36.7068 95.3342 36.5257 95.3808 36.3633 95.4788C36.2008 95.5767 36.0755 95.7073 35.978 95.8751C35.8852 96.0477 35.8388 96.2389 35.8388 96.4627C35.8388 96.6819 35.8852 96.8778 35.978 97.0503C36.0708 97.2229 36.2008 97.3535 36.3633 97.4467C36.5257 97.54 36.7068 97.5866 36.911 97.5866C37.1106 97.5866 37.2916 97.54 37.4587 97.4467Z" fill="white"/>
<path d="M42.6667 95.0123L41.2278 98.2487C41.1117 98.5192 40.9771 98.7104 40.8239 98.827C40.6708 98.9436 40.4851 98.9995 40.2716 98.9995C40.1323 98.9995 40.0024 98.9762 39.8817 98.9343C39.761 98.8923 39.6589 98.8223 39.5707 98.7384L39.7517 98.4493C39.8956 98.5938 40.072 98.6684 40.2762 98.6684C40.4062 98.6684 40.5176 98.6311 40.6104 98.5565C40.7033 98.4819 40.7915 98.3607 40.8704 98.1834L40.9957 97.9036L39.7099 95.017H40.1138L41.1953 97.4746L42.2768 95.017H42.6667V95.0123Z" fill="white"/>
<path d="M46.951 95.0123V97.9036H46.5611V95.3574H44.7555V97.9036H44.3656V95.0123H46.951Z" fill="white"/>
<path d="M51.7319 95.0123V97.9036H51.342V95.3574H49.5364V97.9036H49.1465V95.0123H51.7319Z" fill="white"/>
<path d="M55.7889 95.2735C55.9885 95.46 56.0906 95.7399 56.0906 96.1129V97.9037H55.7192V97.4513C55.631 97.6006 55.5011 97.7171 55.334 97.8011C55.1622 97.885 54.9626 97.927 54.7305 97.927C54.4103 97.927 54.155 97.8477 53.9647 97.6938C53.7744 97.5399 53.6815 97.3347 53.6815 97.0829C53.6815 96.8358 53.7697 96.6399 53.9461 96.4907C54.1225 96.3414 54.4056 96.2668 54.7909 96.2668H55.7007V96.0896C55.7007 95.8424 55.631 95.6512 55.4918 95.5207C55.3525 95.3901 55.1483 95.3248 54.8837 95.3248C54.7027 95.3248 54.5263 95.3528 54.3592 95.4134C54.1921 95.474 54.0482 95.558 53.9275 95.6652L53.7511 95.3761C53.895 95.2502 54.0714 95.1569 54.2757 95.087C54.4799 95.017 54.6934 94.9844 54.9209 94.9844C55.2968 94.989 55.5846 95.087 55.7889 95.2735ZM55.3479 97.4746C55.5057 97.372 55.6218 97.2275 55.696 97.0363V96.5653H54.7955C54.3035 96.5653 54.0575 96.7378 54.0575 97.0829C54.0575 97.2508 54.1225 97.386 54.2478 97.4793C54.3778 97.5772 54.5542 97.6239 54.7862 97.6239C55.0044 97.6239 55.1947 97.5726 55.3479 97.4746Z" fill="white"/>
<path d="M61.7906 96.6165H61.1315V97.9036H60.7416V95.0123H61.1315V96.2808H61.7952L62.8071 95.0123H63.2295L62.097 96.416L63.3131 97.9036H62.8536L61.7906 96.6165Z" fill="white"/>
<path d="M65.3508 97.7405C65.128 97.6145 64.9516 97.4373 64.8263 97.2135C64.6963 96.9896 64.636 96.7378 64.636 96.4534C64.636 96.1735 64.701 95.9171 64.8263 95.6932C64.9516 95.4694 65.128 95.2968 65.3508 95.1709C65.5736 95.045 65.8243 94.9844 66.1028 94.9844C66.3813 94.9844 66.6319 95.045 66.8547 95.1709C67.0775 95.2968 67.2493 95.4694 67.3746 95.6932C67.4999 95.9171 67.5649 96.1689 67.5649 96.4534C67.5649 96.7378 67.4999 96.9896 67.3746 97.2135C67.2493 97.4373 67.0729 97.6099 66.8547 97.7405C66.6319 97.8664 66.3813 97.9317 66.1028 97.9317C65.8243 97.9317 65.5736 97.871 65.3508 97.7405ZM66.6505 97.4467C66.8129 97.3534 66.9383 97.2182 67.0311 97.0503C67.1239 96.8777 67.1657 96.6819 67.1657 96.4627C67.1657 96.2435 67.1193 96.0476 67.0311 95.8751C66.9383 95.7025 66.8129 95.572 66.6505 95.4787C66.488 95.3854 66.3024 95.3388 66.1028 95.3388C65.8985 95.3388 65.7175 95.3854 65.555 95.4787C65.3926 95.572 65.2673 95.7072 65.1698 95.8751C65.0769 96.0476 65.0305 96.2435 65.0305 96.4627C65.0305 96.6819 65.0769 96.8777 65.1698 97.0503C65.2626 97.2228 65.3879 97.3534 65.555 97.4467C65.7175 97.5399 65.8985 97.5866 66.1028 97.5866C66.307 97.5866 66.488 97.5399 66.6505 97.4467Z" fill="white"/>
<path d="M72.7079 95.0123V97.9036H72.3505V95.6186L71.1854 97.5539H71.0091L69.844 95.6139V97.9083H69.4866V95.017H69.8811L71.1019 97.1015L72.3459 95.017H72.7079V95.0123Z" fill="white"/>
<path d="M77.4889 95.0123V97.9036H77.099V95.3574H75.2934V97.9036H74.9034V95.0123H77.4889Z" fill="white"/>
<path d="M81.5411 95.2735C81.7406 95.46 81.8428 95.7399 81.8428 96.1129V97.9037H81.4714V97.4513C81.3832 97.6006 81.2533 97.7171 81.0862 97.8011C80.9144 97.885 80.7148 97.927 80.4827 97.927C80.1625 97.927 79.9072 97.8477 79.7169 97.6938C79.5266 97.5399 79.4337 97.3347 79.4337 97.0829C79.4337 96.8358 79.5219 96.6399 79.6983 96.4907C79.8747 96.3414 80.1578 96.2668 80.5431 96.2668H81.4575V96.0896C81.4575 95.8424 81.3879 95.6512 81.2486 95.5207C81.1094 95.3901 80.9051 95.3248 80.6406 95.3248C80.4595 95.3248 80.2832 95.3528 80.116 95.4134C79.9489 95.474 79.8051 95.558 79.6844 95.6652L79.508 95.3761C79.6519 95.2502 79.8283 95.1569 80.0325 95.087C80.2367 95.017 80.4502 94.9844 80.6777 94.9844C81.0537 94.989 81.3415 95.087 81.5411 95.2735ZM81.1047 97.4746C81.2625 97.372 81.3786 97.2275 81.4529 97.0363V96.5653H80.5524C80.0603 96.5653 79.8143 96.7378 79.8143 97.0829C79.8143 97.2508 79.8793 97.386 80.0046 97.4793C80.1346 97.5772 80.311 97.6239 80.5431 97.6239C80.7612 97.6239 80.9469 97.5726 81.1047 97.4746Z" fill="white"/>
<path d="M83.9734 95.0123H84.3633V96.2948H86.1736V95.0123H86.5635V97.9036H86.1736V96.6305H84.3633V97.9036H83.9734V95.0123Z" fill="white"/>
<path d="M88.7589 95.0123H89.1488V97.3114L91.0705 95.0123H91.414V97.9036H91.0241V95.6046L89.107 97.9036H88.7589V95.0123Z" fill="white"/>
<path d="M93.6189 95.0124H94.0088V97.3114L95.9305 95.0124H96.274V97.9037H95.8841V95.6046L93.967 97.9037H93.6189V95.0124ZM94.3384 94.4061C94.1945 94.2802 94.1156 94.1077 94.1156 93.8792H94.3941C94.3987 94.0237 94.4498 94.1356 94.5472 94.2242C94.6447 94.3129 94.7747 94.3548 94.9325 94.3548C95.0903 94.3548 95.2203 94.3129 95.3178 94.2242C95.4199 94.1403 95.4709 94.0237 95.4756 93.8792H95.7541C95.7494 94.1077 95.6752 94.2802 95.5266 94.4061C95.3781 94.532 95.1785 94.5927 94.9325 94.5927C94.6865 94.5927 94.4823 94.532 94.3384 94.4061Z" fill="white"/>
<path d="M50.8779 104.582L44.6116 105.127L50.7433 105.538L50.8779 104.582Z" fill="white"/>
<path d="M78.2548 105.538L84.5211 104.992L78.394 104.582L78.2548 105.538Z" fill="white"/>
<path d="M64.5663 0C45.6792 0 30.3104 15.4406 30.3104 34.416C30.3104 53.3914 45.6792 68.832 64.5663 68.832C83.4534 68.832 98.8222 53.3914 98.8222 34.416C98.8222 15.4406 83.4581 0 64.5663 0ZM91.465 48.6254L79.8932 36.9995V32.1776L92.9597 45.3051C92.5234 46.4476 92.0267 47.5528 91.465 48.6254ZM61.5817 51.4794L55.7378 45.6082V40.6463L61.6838 46.6202L64.4131 43.8781L64.3806 43.8454L76.0313 32.1402V36.9576L61.5817 51.4794ZM51.8758 62.1586C49.4529 61.0348 47.2016 59.6078 45.1732 57.9149L51.8758 51.181V62.1586ZM79.8886 26.6934V21.7362L94.8628 36.7803C94.7514 38.2493 94.5332 39.6903 94.2222 41.094L79.8886 26.6934ZM34.1677 34.416C34.1677 17.5764 47.8051 3.8753 64.5663 3.8753C80.2553 3.8753 93.2057 15.8836 94.7978 31.2309L77.9391 14.2934L59.7389 32.5833L62.4682 35.3254L76.0313 21.6989V26.6561L61.6513 41.1033L53.8532 33.2688L43.0241 44.1485L45.7534 46.8906L51.8758 40.7396V45.6968L42.3696 55.2475C37.2869 49.7866 34.1677 42.465 34.1677 34.416ZM55.7378 63.637V51.0877L61.5724 56.9496L62.459 56.0589L62.4682 56.0682L76.0313 42.4417V62.6949C72.4897 64.1499 68.6232 64.9567 64.5663 64.9567C61.4981 64.9567 58.5321 64.495 55.7378 63.637ZM79.8886 60.7736V42.479L89.3809 52.0157C86.879 55.5739 83.6438 58.5678 79.8886 60.7736Z" fill="white"/>
</svg>
