<svg width="16" height="38" viewBox="0 0 16 38" fill="none" xmlns="http://www.w3.org/2000/svg">
<rect x="16" y="16" width="16" height="16" rx="2" transform="rotate(-180 16 16)" fill="#015304"/>
<path fill-rule="evenodd" clip-rule="evenodd" d="M7.99998 12C7.86737 12 7.74019 11.9473 7.64642 11.8536C7.55266 11.7598 7.49998 11.6326 7.49998 11.5L7.49998 5.707L5.35398 7.854C5.30749 7.90049 5.2523 7.93736 5.19156 7.96252C5.13082 7.98768 5.06572 8.00063 4.99998 8.00063C4.93423 8.00063 4.86913 7.98768 4.8084 7.96252C4.74766 7.93736 4.69247 7.90049 4.64598 7.854C4.59949 7.80751 4.56261 7.75232 4.53746 7.69158C4.5123 7.63084 4.49935 7.56574 4.49935 7.5C4.49935 7.43426 4.5123 7.36916 4.53746 7.30842C4.56261 7.24768 4.59949 7.19249 4.64598 7.146L7.64598 4.146C7.69242 4.09944 7.7476 4.06249 7.80835 4.03729C7.86909 4.01208 7.93421 3.99911 7.99998 3.99911C8.06575 3.99911 8.13087 4.01208 8.19161 4.03729C8.25236 4.06249 8.30753 4.09944 8.35398 4.146L11.354 7.146C11.4005 7.19249 11.4373 7.24768 11.4625 7.30842C11.4877 7.36916 11.5006 7.43426 11.5006 7.5C11.5006 7.56574 11.4877 7.63084 11.4625 7.69158C11.4373 7.75232 11.4005 7.80751 11.354 7.854C11.2601 7.94789 11.1328 8.00063 11 8.00063C10.9342 8.00063 10.8691 7.98768 10.8084 7.96252C10.7477 7.93736 10.6925 7.90049 10.646 7.854L8.49998 5.707L8.49998 11.5C8.49998 11.6326 8.4473 11.7598 8.35353 11.8536C8.25976 11.9473 8.13259 12 7.99998 12Z" fill="#F8F8F8"/>
<rect y="22" width="16" height="16" rx="2" fill="#015304"/>
<path fill-rule="evenodd" clip-rule="evenodd" d="M8.00002 26C8.13263 26 8.25981 26.0527 8.35358 26.1464C8.44734 26.2402 8.50002 26.3674 8.50002 26.5V32.293L10.646 30.146C10.6925 30.0995 10.7477 30.0626 10.8084 30.0375C10.8692 30.0123 10.9343 29.9994 11 29.9994C11.0658 29.9994 11.1309 30.0123 11.1916 30.0375C11.2523 30.0626 11.3075 30.0995 11.354 30.146C11.4005 30.1925 11.4374 30.2477 11.4625 30.3084C11.4877 30.3692 11.5007 30.4343 11.5007 30.5C11.5007 30.5657 11.4877 30.6308 11.4625 30.6916C11.4374 30.7523 11.4005 30.8075 11.354 30.854L8.35402 33.854C8.30758 33.9006 8.2524 33.9375 8.19165 33.9627C8.13091 33.9879 8.06579 34.0009 8.00002 34.0009C7.93425 34.0009 7.86913 33.9879 7.80839 33.9627C7.74764 33.9375 7.69247 33.9006 7.64602 33.854L4.64602 30.854C4.59953 30.8075 4.56266 30.7523 4.5375 30.6916C4.51234 30.6308 4.49939 30.5657 4.49939 30.5C4.49939 30.4343 4.51234 30.3692 4.5375 30.3084C4.56266 30.2477 4.59953 30.1925 4.64602 30.146C4.73991 30.0521 4.86725 29.9994 5.00002 29.9994C5.06577 29.9994 5.13087 30.0123 5.19161 30.0375C5.25234 30.0626 5.30753 30.0995 5.35402 30.146L7.50002 32.293V26.5C7.50002 26.3674 7.5527 26.2402 7.64647 26.1464C7.74024 26.0527 7.86741 26 8.00002 26Z" fill="#F8F8F8"/>
</svg>
