<svg width="32" height="32" viewBox="0 0 32 32" fill="none" xmlns="http://www.w3.org/2000/svg">
<path d="M16 27C9.93333 27 5 22.0667 5 16C5 9.93333 9.93333 5 16 5C22.0667 5 27 9.93333 27 16C27 22.0667 22.0667 27 16 27ZM16 7C11.04 7 7 11.04 7 16C7 20.96 11.04 25 16 25C20.96 25 25 20.96 25 16C25 11.04 20.96 7 16 7Z" fill="#417E43"/>
<path d="M16 21C13.24 21 11 18.76 11 16C11 13.24 13.24 11 16 11C18.76 11 21 13.24 21 16C21 18.76 18.76 21 16 21ZM16 13C14.3467 13 13 14.3467 13 16C13 17.6533 14.3467 19 16 19C17.6533 19 19 17.6533 19 16C19 14.3467 17.6533 13 16 13Z" fill="#417E43"/>
<path d="M16 6.33332C15.4533 6.33332 15 5.87999 15 5.33332V2.66666C15 2.11999 15.4533 1.66666 16 1.66666C16.5467 1.66666 17 2.11999 17 2.66666V5.33332C17 5.87999 16.5467 6.33332 16 6.33332Z" fill="#417E43"/>
<path d="M5.33329 17H2.66663C2.11996 17 1.66663 16.5467 1.66663 16C1.66663 15.4533 2.11996 15 2.66663 15H5.33329C5.87996 15 6.33329 15.4533 6.33329 16C6.33329 16.5467 5.87996 17 5.33329 17Z" fill="#417E43"/>
<path d="M16 30.3333C15.4533 30.3333 15 29.88 15 29.3333V26.6667C15 26.12 15.4533 25.6667 16 25.6667C16.5467 25.6667 17 26.12 17 26.6667V29.3333C17 29.88 16.5467 30.3333 16 30.3333Z" fill="#417E43"/>
<path d="M29.3333 17H26.6666C26.12 17 25.6666 16.5467 25.6666 16C25.6666 15.4533 26.12 15 26.6666 15H29.3333C29.88 15 30.3333 15.4533 30.3333 16C30.3333 16.5467 29.88 17 29.3333 17Z" fill="#417E43"/>
</svg>
