<svg width="16" height="16" viewBox="0 0 16 16" fill="none" xmlns="http://www.w3.org/2000/svg">
<rect x="16" y="16" width="16" height="16" rx="2" transform="rotate(-180 16 16)" fill="#015304"/>
<path fill-rule="evenodd" clip-rule="evenodd" d="M7.99998 12C7.86737 12 7.74019 11.9473 7.64642 11.8536C7.55266 11.7598 7.49998 11.6326 7.49998 11.5L7.49998 5.707L5.35398 7.854C5.30749 7.90049 5.2523 7.93736 5.19156 7.96252C5.13082 7.98768 5.06572 8.00063 4.99998 8.00063C4.93423 8.00063 4.86913 7.98768 4.8084 7.96252C4.74766 7.93736 4.69247 7.90049 4.64598 7.854C4.59949 7.80751 4.56261 7.75232 4.53746 7.69158C4.5123 7.63084 4.49935 7.56574 4.49935 7.5C4.49935 7.43426 4.5123 7.36916 4.53746 7.30842C4.56261 7.24768 4.59949 7.19249 4.64598 7.146L7.64598 4.146C7.69242 4.09944 7.7476 4.06249 7.80835 4.03729C7.86909 4.01208 7.93421 3.99911 7.99998 3.99911C8.06575 3.99911 8.13087 4.01208 8.19161 4.03729C8.25236 4.06249 8.30753 4.09944 8.35398 4.146L11.354 7.146C11.4005 7.19249 11.4373 7.24768 11.4625 7.30842C11.4877 7.36916 11.5006 7.43426 11.5006 7.5C11.5006 7.56574 11.4877 7.63084 11.4625 7.69158C11.4373 7.75232 11.4005 7.80751 11.354 7.854C11.2601 7.94789 11.1328 8.00063 11 8.00063C10.9342 8.00063 10.8691 7.98768 10.8084 7.96252C10.7477 7.93736 10.6925 7.90049 10.646 7.854L8.49998 5.707L8.49998 11.5C8.49998 11.6326 8.4473 11.7598 8.35353 11.8536C8.25976 11.9473 8.13259 12 7.99998 12Z" fill="#F8F8F8"/>
</svg>
