<svg width="107" height="98" viewBox="0 0 107 98" fill="none" xmlns="http://www.w3.org/2000/svg">
<rect x="49.0002" y="58.0046" width="79.2025" height="2" transform="rotate(-45 49.0002 58.0046)" fill="#417E43"/>
<rect x="29.4142" y="35.7914" width="30" height="2" transform="rotate(45 29.4142 35.7914)" fill="#417E43"/>
<mask id="path-3-inside-1_57_1914" fill="white">
<path d="M96.2677 36.0863C99.2554 47.0219 98.3588 58.6551 93.7308 69.0038C89.1028 79.3525 81.0297 87.7764 70.8871 92.8401C60.7445 97.9038 49.1599 99.294 38.1071 96.7739C27.0544 94.2538 17.2174 87.9792 10.2723 79.0194C3.32713 70.0595 -0.296438 58.9687 0.0189688 47.6367C0.334375 36.3047 4.56924 25.4326 12.002 16.8729C19.4348 8.31326 29.6055 2.5956 40.7813 0.694167C51.9571 -1.20726 63.4465 0.825184 73.2918 6.44521L72.3048 8.17414C62.8596 2.78245 51.837 0.832573 41.1152 2.65675C30.3935 4.48093 20.636 9.96629 13.5052 18.1782C6.37439 26.3901 2.31158 36.8205 2.00899 47.6921C1.70639 58.5637 5.18274 69.2039 11.8457 77.7997C18.5087 86.3956 27.946 92.4152 38.5497 94.8329C49.1534 97.2507 60.2673 95.9169 69.9979 91.059C79.7284 86.201 87.4735 78.1194 91.9135 68.1911C96.3534 58.2629 97.2136 47.1023 94.3473 36.6109L96.2677 36.0863Z"/>
</mask>
<path d="M96.2677 36.0863C99.2554 47.0219 98.3588 58.6551 93.7308 69.0038C89.1028 79.3525 81.0297 87.7764 70.8871 92.8401C60.7445 97.9038 49.1599 99.294 38.1071 96.7739C27.0544 94.2538 17.2174 87.9792 10.2723 79.0194C3.32713 70.0595 -0.296438 58.9687 0.0189688 47.6367C0.334375 36.3047 4.56924 25.4326 12.002 16.8729C19.4348 8.31326 29.6055 2.5956 40.7813 0.694167C51.9571 -1.20726 63.4465 0.825184 73.2918 6.44521L72.3048 8.17414C62.8596 2.78245 51.837 0.832573 41.1152 2.65675C30.3935 4.48093 20.636 9.96629 13.5052 18.1782C6.37439 26.3901 2.31158 36.8205 2.00899 47.6921C1.70639 58.5637 5.18274 69.2039 11.8457 77.7997C18.5087 86.3956 27.946 92.4152 38.5497 94.8329C49.1534 97.2507 60.2673 95.9169 69.9979 91.059C79.7284 86.201 87.4735 78.1194 91.9135 68.1911C96.3534 58.2629 97.2136 47.1023 94.3473 36.6109L96.2677 36.0863Z" stroke="#417E43" stroke-width="2" mask="url(#path-3-inside-1_57_1914)"/>
</svg>
