<svg width="32" height="32" viewBox="0 0 32 32" fill="none" xmlns="http://www.w3.org/2000/svg">
<path d="M30 28.6L27.2 25.8C27.7 25 28 24 28 23C28 20.2 25.8 18 23 18C20.2 18 18 20.2 18 23C18 25.8 20.2 28 23 28C24 28 25 27.7 25.8 27.2L28.6 30L30 28.6ZM20 23C20 21.3 21.3 20 23 20C24.7 20 26 21.3 26 23C26 24.7 24.7 26 23 26C21.3 26 20 24.7 20 23ZM8 16H18V18H8V16ZM8 10H20V12H8V10Z" fill="#417E43"/>
<path d="M14 27.7L8.8 24.9C5.8 23.4 4 20.3 4 17V4H24V15H26V4C26 2.9 25.1 2 24 2H4C2.9 2 2 2.9 2 4V17C2 21.1 4.2 24.8 7.8 26.7L14 30V27.7Z" fill="#417E43"/>
</svg>
