<svg width="32" height="32" viewBox="0 0 32 32" fill="none" xmlns="http://www.w3.org/2000/svg">
<path d="M29.4821 8.624L19.4821 3.124C19.3344 3.04276 19.1686 3.00017 19.0001 3.00017C18.8315 3.00017 18.6657 3.04276 18.5181 3.124L8.51805 8.624C8.36127 8.71032 8.23052 8.83714 8.13946 8.99123C8.0484 9.14532 8.00037 9.32102 8.00037 9.5C8.00037 9.67898 8.0484 9.85468 8.13946 10.0088C8.23052 10.1628 8.36127 10.2897 8.51805 10.376L18.0001 15.591V26.31L14.9641 24.64L14.0001 26.391L18.5181 28.876C18.6657 28.9574 18.8315 29.0001 19.0001 29.0001C19.1686 29.0001 19.3344 28.9574 19.4821 28.876L29.4821 23.376C29.6389 23.2897 29.7697 23.1629 29.8608 23.0088C29.9519 22.8547 30 22.679 30.0001 22.5V9.5C30 9.32098 29.9519 9.14526 29.8608 8.99117C29.7697 8.83709 29.6389 8.71028 29.4821 8.624ZM19.0001 5.142L26.9251 9.5L19.0001 13.858L11.0751 9.5L19.0001 5.142ZM28.0001 21.909L20.0001 26.309V15.59L28.0001 11.19V21.909Z" fill="#417E43"/>
<path d="M10 16H2V14H10V16ZM12 24H4V22H12V24ZM14 20H6V18H14V20Z" fill="#417E43"/>
</svg>
