<svg width="638" height="309" viewBox="0 0 638 309" fill="none" xmlns="http://www.w3.org/2000/svg">
<path d="M695.843 111.912L705 102.479L642.244 42.6698L642.244 25.6111L695.843 76.0221L705 66.5889L635.498 5.49591e-05L572.557 62.9269L581.992 72.3601L628.891 25.4721L628.891 42.5307L579.152 92.258L552.191 65.3025L524.116 93.5559L470.715 42.6697L470.715 25.6111L524.313 76.0221L533.471 66.5889L463.969 3.99635e-05L401.027 62.9269L410.463 72.3601L457.362 25.4721L457.362 42.5307L407.623 92.2579L380.661 65.3025L352.367 93.7761L298.745 42.6697L298.745 25.6111L352.344 76.0221L361.501 66.5889L291.999 2.49294e-05L229.057 62.9268L238.493 72.3601L285.392 25.472L285.392 42.5307L235.653 92.2579L208.691 65.3025L180.617 93.5558L127.216 42.6697L127.216 25.6111L180.814 76.0221L189.971 66.5889L120.469 9.93386e-06L57.528 62.9268L66.9635 72.3601L113.862 25.472L113.862 42.5306L64.1236 92.2579L37.162 65.3025L-0.0347614 102.734L9.40066 112.167L30.3347 90.9947L30.3347 108.053L-0.0347645 138.416L9.40066 147.849L30.3347 126.92L30.3347 179.846L-0.0347708 210.405L9.40065 219.838L30.3347 198.666L30.3347 215.724L-0.034774 246.087L9.40065 255.52L30.3347 234.591L30.3347 281.456L30.3347 292.384L-0.0347807 322.943L9.40064 332.376L30.3347 311.204L30.3347 328.274L-0.0347838 358.637L9.40064 368.07L30.3578 347.14L30.3578 424.345L30.3578 430L43.7111 430L43.7111 424.345L43.7111 346.828L63.8917 367.004L113.897 317.079L113.897 394.005L127.239 394.005L127.239 317.207L180.837 368.858L189.995 359.425L189.797 359.228L201.887 347.141L201.887 424.345L201.887 430L215.229 430L215.229 424.345L215.229 346.828L235.41 367.004L285.415 317.079L285.415 394.005L298.757 394.005L298.757 317.207L352.355 368.858L360.075 360.908L373.846 347.141L373.846 424.345L373.846 430L387.187 430L387.187 424.345L387.187 346.828L407.368 367.004L457.373 317.079L457.373 394.005L470.715 394.005L470.715 317.207L524.313 368.858L533.471 359.425L533.274 359.228L545.363 347.141L545.363 424.345L545.363 430L558.705 430L558.705 424.345L558.705 346.828L578.886 367.004L628.891 317.068L628.891 394.005L642.244 394.005L642.244 317.207L695.843 368.858L705 359.425L642.244 298.34L642.244 281.757L695.843 332.133L705 322.7L642.244 262.89L642.244 245.832L695.843 296.243L705 286.81L642.244 226.676L642.244 204.657L695.843 256.308L705 246.875L642.244 185.791L642.244 173.785L642.244 169.207L695.843 219.583L705 210.15L642.244 150.341L642.244 133.282L695.843 183.693L705 174.26L642.244 114.126L642.244 96.9862L695.843 148.637L705 139.204L642.244 78.1197L642.244 61.5362L695.843 111.912ZM558.705 90.6819L579.268 111.24L628.891 61.4087L628.891 77.9922L578.92 127.951L558.705 107.74L558.705 90.6819ZM578.886 146.783L628.891 96.8587L628.891 114.288L572.557 170.609L581.992 180.043L628.891 133.155L628.891 150.213L579.152 199.94L558.705 179.498L558.705 126.619L578.886 146.783ZM628.891 226.826L572.557 283.148L581.992 292.581L628.891 245.693L628.891 262.751L579.152 312.479L558.705 292.036L558.705 281.467L558.705 234.289L578.886 254.465L628.891 204.541L628.891 226.826ZM524.116 313.777L470.715 262.89L470.715 245.832L524.313 296.243L533.471 286.81L470.715 226.676L470.715 204.657L524.313 256.308L533.471 246.875L533.274 246.678L545.363 234.591L545.363 281.456L545.363 292.395L524.116 313.777ZM352.378 313.985L298.757 262.879L298.757 245.82L352.355 296.231L361.512 286.798L298.757 226.664L298.757 204.645L352.355 256.296L360.075 248.347L373.846 234.579L373.846 281.444L373.846 292.372L352.378 313.985ZM180.64 313.777L127.239 262.89L127.239 245.832L180.837 296.243L189.995 286.81L127.239 226.676L127.239 204.657L180.837 256.308L189.995 246.875L189.797 246.678L201.887 234.591L201.887 281.456L201.887 292.384L180.64 313.777ZM43.7111 198.353L64.2742 218.911L113.897 169.08L113.897 173.796L113.897 185.663L63.9265 235.622L43.7111 215.411L43.7111 198.353ZM127.239 169.207L178.496 217.381L180.953 219.838L201.887 198.666L201.887 215.724L180.246 237.36L127.25 185.779L127.25 173.773L127.25 169.207L127.239 169.207ZM215.229 281.456L215.229 234.278L235.41 254.454L285.415 204.53L285.415 226.826L229.081 283.148L238.516 292.581L285.415 245.693L285.415 262.751L235.676 312.479L215.229 292.036L215.229 281.456ZM298.757 169.207L352.355 219.583L352.506 219.433L352.911 219.838L373.846 198.666L373.846 215.724L351.984 237.581L298.768 185.779L298.768 173.773L298.768 169.207L298.757 169.207ZM285.415 173.785L285.415 185.652L235.444 235.611L215.229 215.4L215.229 198.341L235.792 218.9L285.415 169.068L285.415 173.785ZM387.187 281.456L387.187 234.278L407.368 254.454L457.373 204.53L457.373 226.826L401.039 283.148L410.474 292.581L457.373 245.693L457.373 262.751L407.634 312.479L387.187 292.036L387.187 281.456ZM470.726 169.207L521.984 217.381L524.441 219.838L545.363 198.666L545.363 215.724L523.722 237.36L470.726 185.779L470.726 173.773L470.726 169.207ZM457.373 173.785L457.373 185.652L407.403 235.611L387.187 215.4L387.187 198.341L407.75 218.9L457.373 169.068L457.373 173.785ZM470.726 61.5362L521.984 109.711L524.441 112.167L545.363 90.9948L545.363 108.053L523.722 129.69L470.726 78.1081L470.726 61.5362ZM524.313 148.637L533.471 139.204L533.274 139.007L545.363 126.92L545.363 179.846L524.116 201.227L470.715 150.341L470.715 133.282L524.313 183.693L533.471 174.26L470.715 114.126L470.715 96.9862L524.313 148.637ZM387.187 90.6819L407.75 111.24L457.373 61.4087L457.373 77.9922L407.403 127.951L387.187 107.74L387.187 90.6819ZM407.368 146.783L457.373 96.8587L457.373 114.288L401.039 170.609L410.474 180.043L457.373 133.155L457.373 150.213L407.634 199.94L387.187 179.498L387.187 126.619L407.368 146.783ZM298.757 61.5362L352.355 111.912L352.506 111.762L352.911 112.167L373.846 90.9948L373.846 108.053L351.984 129.91L298.768 78.1081L298.768 61.5362L298.757 61.5362ZM352.355 148.637L360.075 140.687L373.834 126.931L373.834 179.857L352.378 201.459L298.757 150.352L298.757 133.294L352.355 183.705L361.512 174.271L298.757 114.137L298.757 96.9977L352.355 148.637ZM215.229 90.6819L235.792 111.24L285.415 61.4087L285.415 77.9922L235.444 127.951L215.229 107.74L215.229 90.6819ZM235.41 146.783L285.415 96.8586L285.415 114.288L229.081 170.609L238.516 180.043L285.415 133.155L285.415 150.213L235.676 199.94L215.229 179.498L215.229 126.618L235.41 146.783ZM127.239 61.5362L178.496 109.711L180.953 112.167L201.887 90.9947L201.887 108.053L180.246 129.689L127.25 78.1081L127.25 61.5362L127.239 61.5362ZM180.837 148.637L189.995 139.204L189.797 139.007L201.887 126.92L201.887 179.846L180.64 201.227L127.239 150.341L127.239 133.282L180.837 183.693L189.995 174.26L127.239 114.126L127.239 96.9861L180.837 148.637ZM43.7112 90.6819L64.2743 111.24L113.897 61.4087L113.897 77.9922L63.9265 127.951L43.7111 107.74L43.7112 90.6819ZM63.8917 146.783L113.897 96.8586L113.897 114.288L57.5629 170.609L66.9983 180.043L113.897 133.155L113.897 150.213L64.1583 199.94L43.7111 179.498L43.7111 126.618L63.8917 146.783ZM43.7111 234.278L63.8917 254.454L113.897 204.53L113.897 226.826L57.5629 283.148L66.9982 292.581L113.897 245.693L113.897 262.751L64.1583 312.479L43.7111 292.036L43.7111 281.467L43.7111 234.278ZM113.897 298.201L63.9265 348.16L43.7111 327.95L43.7111 310.891L64.2742 331.449L113.897 281.618L113.897 298.201ZM180.235 349.922L127.239 298.34L127.239 281.757L178.496 329.931L180.953 332.388L201.887 311.215L201.887 328.274L180.235 349.922ZM285.415 298.201L235.444 348.16L215.229 327.95L215.229 310.891L235.792 331.449L285.415 281.618L285.415 298.201ZM351.984 350.142L298.768 298.34L298.768 281.757L352.367 332.133L352.517 331.982L352.923 332.388L373.857 311.215L373.857 328.274L351.984 350.142ZM457.373 298.201L407.403 348.16L387.187 327.95L387.187 310.891L407.75 331.449L457.373 281.618L457.373 298.201ZM523.711 349.922L470.715 298.34L470.715 281.757L521.972 329.931L524.429 332.388L545.352 311.215L545.352 328.274L523.711 349.922ZM628.891 298.201L578.92 348.16L558.705 327.95L558.705 310.891L579.268 331.449L628.891 281.618L628.891 298.201ZM628.891 185.652L578.92 235.611L558.705 215.4L558.705 198.341L579.268 218.9L628.891 169.068L628.891 173.785L628.891 185.652Z" fill="white" fill-opacity="0.8"/>
</svg>
