<svg width="34" height="32" viewBox="0 0 34 32" fill="none" xmlns="http://www.w3.org/2000/svg">
<path d="M25.7391 8.47619H22.1557L20.087 6.28571H13.3043V8.47619H19.0922L21.1609 10.6667H25.7391V23.8095H7.65217V13.9524H5.3913V23.8095C5.3913 25.0143 6.4087 26 7.65217 26H25.7391C26.9826 26 28 25.0143 28 23.8095V10.6667C28 9.4619 26.9826 8.47619 25.7391 8.47619ZM11.0435 17.2381C11.0435 20.261 13.5757 22.7143 16.6957 22.7143C19.8157 22.7143 22.3478 20.261 22.3478 17.2381C22.3478 14.2152 19.8157 11.7619 16.6957 11.7619C13.5757 11.7619 11.0435 14.2152 11.0435 17.2381ZM16.6957 13.9524C18.5609 13.9524 20.087 15.431 20.087 17.2381C20.087 19.0452 18.5609 20.5238 16.6957 20.5238C14.8304 20.5238 13.3043 19.0452 13.3043 17.2381C13.3043 15.431 14.8304 13.9524 16.6957 13.9524ZM7.65217 8.47619H11.0435V6.28571H7.65217V3H5.3913V6.28571H2V8.47619H5.3913V11.7619H7.65217V8.47619Z" fill="#417E43"/>
</svg>
