<svg width="32" height="32" viewBox="0 0 32 32" fill="none" xmlns="http://www.w3.org/2000/svg">
<path d="M16 2L4 6V18C4 24.6281 9.37187 30 16 30C22.6281 30 28 24.6281 28 18V6L16 2ZM25.75 18C25.75 23.3844 21.3844 27.75 16 27.75C10.6156 27.75 6.25 23.3844 6.25 18V7.6875L16 4.25L25.75 7.6875V18Z" fill="#417E43"/>
<path d="M11.825 14.8469C11.7208 14.7421 11.5968 14.659 11.4604 14.6023C11.3239 14.5456 11.1775 14.5164 11.0297 14.5164C10.8819 14.5164 10.7356 14.5456 10.5991 14.6023C10.4626 14.659 10.3387 14.7421 10.2344 14.8469C10.1297 14.9511 10.0466 15.0751 9.98984 15.2116C9.93313 15.348 9.90393 15.4944 9.90393 15.6422C9.90393 15.79 9.93313 15.9363 9.98984 16.0728C10.0466 16.2093 10.1297 16.3332 10.2344 16.4375L14.2782 20.4813L14.3438 20.5469C14.4424 20.6457 14.5596 20.7241 14.6885 20.7776C14.8175 20.8311 14.9557 20.8586 15.0954 20.8586C15.235 20.8586 15.3732 20.8311 15.5022 20.7776C15.6311 20.7241 15.7483 20.6457 15.8469 20.5469L22.8313 13.5625C22.9301 13.4639 23.0085 13.3467 23.062 13.2178C23.1155 13.0888 23.143 12.9506 23.143 12.8109C23.143 12.6713 23.1155 12.5331 23.062 12.4041C23.0085 12.2752 22.9301 12.158 22.8313 12.0594L22.7438 11.9719C22.6452 11.8731 22.528 11.7947 22.3991 11.7412C22.2701 11.6877 22.1318 11.6602 21.9922 11.6602C21.8526 11.6602 21.7144 11.6877 21.5854 11.7412C21.4564 11.7947 21.3393 11.8731 21.2407 11.9719L15.0938 18.1156L11.825 14.8469Z" fill="#417E43"/>
</svg>
